<svg xmlns="http://www.w3.org/2000/svg" viewBox="0 0 297 297"><path d="M148.51 117.216c32.317 0 58.608-26.291 58.608-58.608S180.827 0 148.51 0c-32.317 0-58.608 26.291-58.608 58.608s26.291 58.608 58.608 58.608zm78.644 28.402c-.025-.008-.073-.026-.098-.032-7.631-1.864-30.999-5.133-30.999-5.133a5.194 5.194 0 0 0-6.406 3.188l-35.174 96.509c-2.029 5.567-9.903 5.567-11.932 0l-35.174-96.509a5.195 5.195 0 0 0-4.876-3.42c-.504 0-24.531 3.369-32.53 5.358-21.858 5.435-35.645 26.929-35.645 49.329v80.302c0 12.034 9.756 21.79 21.79 21.79h184.782c12.034 0 21.79-9.756 21.79-21.79v-80.569c-.001-22.303-14.328-42.096-35.528-49.023z"/><path d="M161.775 138.613c-1.404-1.53-3.456-2.299-5.532-2.299h-15.485c-2.076 0-4.129.77-5.532 2.299a7.183 7.183 0 0 0-.946 8.462l8.278 12.479-3.875 32.69 7.631 20.3c.744 2.042 3.631 2.042 4.375 0l7.631-20.3-3.875-32.69 8.278-12.479a7.186 7.186 0 0 0-.948-8.462z"/></svg>