<svg xmlns="http://www.w3.org/2000/svg" xmlns:xlink="http://www.w3.org/1999/xlink" width="390mm" height="250mm" viewBox="0 0 390 250"><defs><linearGradient id="a"><stop offset="0" stop-color="#666"/><stop offset="1" stop-color="#666" stop-opacity="0"/></linearGradient><linearGradient xlink:href="#a" id="b" gradientUnits="userSpaceOnUse" x1="196.85" y1=".742" x2="-39.688" y2="283.242" gradientTransform="matrix(1.1166 0 0 1 -22.953 0)"/></defs><path opacity=".5" fill="url(#b)" paint-order="stroke markers fill" d="M-67.269.742h264.118v282.5H-67.269z" transform="matrix(1.27525 0 0 .83046 128.416 7.317)"/><path d="M222.19 169.194l4.507 28.63 10.054 2.646 6.88 19.05 16.007 11.641-15.875.662-15.743-4.101-9.657-9.393-7.012-12.568-.132-7.011 6.88-5.16 3.042-6.35-.794-16.933z" fill="none"/><path d="M219.421 163.163l1.323 15.743.397 8.335-3.043 6.35-4.895 3.175-1.984 1.984.132 7.011 7.012 12.568 9.657 9.393 15.743 4.1 15.875-.66 17.991-6.35 12.039-10.32 7.937-11.376 1.059-7.673-1.588-4.895-5.953-4.498-1.455-3.837.997-12.879-11.316 20.685-43.22 4.01zm98.16 55.298l7.276 13.494 4.102-.132.132-21.564h2.646l-.265-12.964h-5.82z" fill="none"/><path d="M236.751 200.47l-.622-6.44-13.939-24.836 4.507 28.63z" fill="#336bb8"/><path d="M243.63 219.52l6.747 4.762 24.871-20.373-.926-11.112-15.478 3.043.794 11.773z" fill="#e18e6b"/><path d="M243.63 219.52l16.008-11.907-.794-11.773-23.043-1.109.95 5.739z" fill="#e7ec95"/><path d="M283.07 182.428l1.889 1.92-2.339 7.343.702-.187 2.572-7.063.328-6.407z" fill="#490e15"/><path d="M300.674 136.266h2.526l2.058-1.029 2.806-3.367.468-3.742 1.964-1.871.749-3.461.374-9.355.093-5.612-2.151-7.203-1.59-3.274-.655-.375-3.368 7.11.468 11.6z" fill="#f2e2ed"/><path d="M304.135 111.945l-4.116 15.528-3.55 10.7 2.334 11.283 3.18-14.874 2.433-18.896z" fill="#7d0fa7"/><path d="M275.838 98.802l19.036 3.227.695-13.43-20.453 4.714z" fill="#83409d"/><path d="M262.321 139.05l-.606 2.8 2.591 1.288 2.811 2.312 2.963 2.003 1.675 2.469 1.641 1.156.662.069-.463-.96.463-.069.794 1.646.397-.206-.133-.686.662-.068.926 1.817 1.918 2.4.199-.07-1.786-2.536-1.489-3.36.72-.065 1.298 1.71.529.138.661 1.577h.265l.397.96.53 1.303-.274 1.785-1.72.275-.132.96-2.262-.119-1.956-1.134-1.651.15-.397-.823s-1.261-1.368-1.756-2.157a90.957 90.957 0 0 1-.826-1.372l-1.885-1.074.408.786 1.059.823-.49.444-1.192-.754-.742-1.71-1.234-.837-2.207-1.754-2.5-.261-1.514-.63-.31-1.262-1.347-.363-.187-1.025.331-1.362-.214-.726-.614-1.811z" fill="#0a0102" fill-opacity=".994"/><path d="M259.236 179.739l-12.166.093-7.833-3.622 3.346-5.8 6.182-1.49 3.64 3.033z" fill="#011200" fill-opacity=".823"/><path d="M268.237 190.019l9.612-4.08 8.502-6.574-6.208 11.315-7.408 4.763-5.082-2.957z" fill="#182a44"/><path d="M263.528 170.002l4.62 5.775-3.086 3.99-7.276.065-6.924-7.458 4.807-4.448z" fill="#490e15" fill-opacity=".823"/><path d="M233.042 159.746l-2.62 2.806 2.713 4.724 3.555-3.227 4.022 6.267 1.871.094 3.087 1.964h5.192l7.624-2.479-17.812-14.487z" fill="#2d1b35"/><path d="M238.85 159.907l3.457-.183 2.287-4.746.375-1.687 2.76-1.356.467-3.368-6.268 1.544-5.285 9.214z" fill="#28461a"/><path d="M240.72 145.833l-9.393 8.798.592 4.366.655 1.59 1.45.515.468-.748.42-.234.655.28 2.152-.888.187-.561 2.768-3.543.779-.248 2.118-3.306 3.783-1.79-.515.608-1.65.966.093.421 1.885-.92.888-1.122 3.675-2.085 1.72-1.04.023-.702-.678-1.27.687.212.086-1.2-.608-.795.788-2.443-6.005-.328-5.113 1.373z" fill="#0a0102"/><path d="M240.993 47.493l-.538 12.483 3.666 13.679 12.21 15.094-2.25 10.253-35.352-24.756 1.353-22.869z" fill="#d3d872"/><path d="M256.595 184.198l3.704-.132 2.381 4.365 5.557 1.588 4.498 5.424-2.779 1.984-9.132 2.636z" fill="#850918"/><path d="M211.059 137.67l1.403 1.59-4.77.046-2.76-.935-1.731-2.058-.234-2.526-1.604-2.373-1.521-2.845-.794-5.16-.463-4.894-.926-2.778-.33-5.226.793-5.225 1.19-2.061.927-.254 3.902-.066 4.168 19.513z" fill="#530c23"/><path d="M209.562 83.04l14.219 13.002 6.36 20.767-.997 48.405 6.152 13.824 2.392 10.46-1.887 5.233-13.337-17.941-6.35-18.124-5.055-20.997-5.198-18.856-.86-23.052z" fill="#530c23"/><path d="M224.81 120.083l-7.484.655-2.245-2.62-4.396.188.187 5.519 13.657 28.624 2.994 21.141 6.548 8.513 1.31 6.454 9.118 1.47-.3-13.288 3.5-5.524-6.753-4.5-2.853-3.976-3.601.608-1.59-1.356.186-2.292-1.169-.702 4.303-6.36-.093-.655 5.612-4.397 6.202-3.21.335-1.44-5.871-4.84-4.531-3.837z" fill="#db7f58"/><path d="M235.38 188.557l4.397.749.187-.374 4.303.935 1.029-.561 5.145-1.216 2.806-3.93 1.778-2.431 3.18.093.374 7.67 2.245 3.088v7.483l-2.906 1.134h-10.054l-12.063-6.466z" fill="#2b5185"/><path d="M298.2 153.11l-.991 4.233-8.29 16.388-2.568 5.634-6.208 11.315-10.187 6.747-12.038 3.77h-10.054l-12.063-6.466-.106-1.389 12.203 7.234 9.869.093 11.689-3.87 9.893-6.78 6.076-11.977L296 156.663l.924-3.84z" fill="#53116d"/><path d="M218.098 193.59l-5.262 1.141-3.648 3.274-25.883 3.523-17.462 8.996-20.638 23.812-3.307 8.202 41.105.089h159.7l36.394-.353-2.117-13.23-9.79-16.403-20.901-12.7-30.692-6.88-9.988-2.315-6.284-2.712-8.202-1.984 5.953 4.498 1.588 4.895-1.059 7.673-7.937 11.377-12.039 10.318-17.991 6.35-16.166-.018-15.452-3.421-9.657-9.393-7.012-12.568-.132-7.011z" fill="#25284e"/><path d="M243.564 185.52l.265 7.21 8.202-3.042-.066-2.249z" fill="#db7f58"/><path d="M236.55 189.4l3.274.537.257-.257 4.934.725.562-.444 5.168-1.263 4.326-6.478-.046-.246-4.441 6.383-5.242 1.248-.843.422-4.837-.554-.422.132-2.43-.339z" fill="#011200"/><path d="M222.356 127.774l5.354 20.934h5.051l5.238-22.451 5.987-17.586-18.347 3.163-2.57 10.759-5.075 1.088-1.999 4.502z" fill="#2b5185"/><path d="M294.968 103.151l-21.047 19.925-.936 7.858-7.13-5.738 1.786-11.377-3.307-8.136 3.373-1.059z" fill="#f08c6c"/><path d="M259.702 41.88l.374 18.522 11.974 22.263 15.237 6.547-7.673 4.3-21.462-1.038-20.714-17.48-.561-28.998z" fill="#7beb80"/><path d="M264.93 102.31l4.167-3.639-.388-3.658 10.905-1.501-3.682 4.728-8.224 6.384z" fill="#201418"/><path d="M258.152 94.88l1.924 3.407 4.853 4.022 4.168-3.638-.388-3.658z" fill="#190d0d"/><path d="M258.152 92.474l7.617-1.203 10.824-4.677 10.289-1.21 8.687 3.215-.668 2.806-4.143 3.207-6.147-1.87-15.902 2.271-10.557-.134z" fill="#732713"/><path d="M258.152 94.88l-3.145-5.668 1.059-7.805.661.265-.397 7.077 1.985 4.961z" fill="#60ba63"/><path d="M238.405 134.026l.1-2.48 5.06-5.57-.365-1.673-6.746.066-4.101 7.805 4.894 3.109z" fill="#951f53"/><path d="M238.935 115.5l-.936 10.757 5.566-.28.889-4.959-.234-6.15z" fill="#732713"/><path d="M228.739 120.644h-2.058l-.094-5.612-12.441-7.765 2.712-1.964 1.918-1.123 29.42.842-4.49 7.577z" fill="#d3d872"/><path d="M237.611 106.013l-4.63 5.358-3.506.662-3.836-.199-6.615-3.505 3.44-3.11z" fill="#263688"/><path d="M234.725 101.374l-2.67-5.216-15.412-5.49-6.152 10.583 6.367 4.052 2.386-1.707z" fill="#2c76de"/><path d="M224.67 108.11l-2.152-.375-.234-.935.18-1.58 4.762-1.059-.727 1.588.264 1.323.794.661-2.888.376m11.506-1.216l1.436-.88.662-1.124.066-.595-2.25-.926-1.917.198.727 1.72-.33.992-1.588 1.125z" fill="#191111"/><path d="M223.687 93.89l.094 2.152 5.893.468 5.051 4.864 5.59 2.783 1.333 1.59 2.338 2.924 2.058-2.433 4.49-9.822z" fill="#850918"/><path d="M223.257 70.03l6.483-5.027v2.117l3.44-6.747 10.847-8.335-.926 1.985 7.119-4.43 6.522-.426 5.9-1.2 15.252 4.733 15.346 7.408-4.498-12.038-37.703-11.245-30.957 14.552z" fill="#2b5185"/><path d="M225.639 50.98v17.727l2.116 9.525L253.87 93.31l.211 5.693-3.547-2.586-24.754-7.922-7.124 1.22-5.32 5.376-6.393-2.51 2.424-37.102z" fill="#951f53"/><path d="M248.79 81.143l1.19 1.19.662 5.193-.629 6.052-.554-.179.234-5.495zm-6.207-1.378l.655 3.836-.374 3.46-.936-.093.375-3.18-.655-3.836z" fill="#a9ae57"/><path d="M263.35 81.636l-1.216 3.93.842 2.805h.655l-.655-2.806.842-3.274z" fill="#60ba63"/><path d="M281.965 100.018l-.698 5.003 7.574-.28-.14-4.256z" fill="#191111"/><path d="M280.54 100.259l1.425-1.691 6.876.327 3.087 1.871 2.946 1.263-7.653-.381-1.456-.463z" fill="#322829"/><path d="M270.949 101.185l.586 3.744 7.88.158-1.846-5.256-6.174.514z" fill="#191111"/><path d="M269.71 102.12l10.83-1.861 1.425-1.691-10.196.14z" fill="#160d10"/><path d="M200.239 102.97l-.53-1.587-.66 1.059.264-2.514-.794-1.19-1.588-2.382 1.191.132-.265-1.587-.793-1.588-.794.927 1.19-3.043-1.058.132.662-3.175.132-1.455v-1.455s-1.058 1.852-1.058 1.323c0-.53.529-1.985.529-1.985l.463-.86-.066-.793-.596.727s.265-.992.265-1.257c0-.264-.066-.992-.066-.992l-1.19 1.059.66-2.051-.66.132.727-1.19.198-.794-1.389 1.19 1.522-1.72v-.528l-.86.198 1.323-1.587-1.39-1.125 1.257.33.066-.528-.529-.86 1.059.066.926-2.249-.397-1.588-1.852 4.63-.397-2.777-.794.396.794-.926.794-1.19-1.191.926 2.646-4.895-1.19 1.19.793-1.851-3.175 4.63 1.058-2.778-1.19 1.323 1.455-3.175-1.852 1.322 2.116-2.645-1.058.132 2.249-1.852-.926-.397 2.646-1.72 1.455-1.19-3.572 1.19 3.307-2.646-1.984.794 1.72-2.513 1.058-1.72-1.058-1.059-1.058-.132 1.852-.794 1.587-1.19h1.19l.133-1.852h-1.587l1.852-1.588-.53-1.587-.661 1.058.265-2.381-2.514 2.116 3.836-5.424-1.72.397 5.292-2.91-2.778.661 4.101-2.38h-1.587l3.969-3.044-1.985.662 4.233-2.646.133-1.587.264.793 2.778-3.175-4.63 2.382 3.837-3.043-1.588.397 4.63-2.646.133-.53 1.852-.793.397-.53-2.91.662 4.497-1.72 1.059-.926-2.514.133 5.292-1.19-1.985-.398 5.027-1.587-.661-.794 4.63-.397 1.588-1.587 2.116-.53 1.19-1.058h-1.851l-3.175 2.117 2.381-2.91 2.91-.398 1.985-.396 3.043-1.059.529-.397-3.837.926 3.043-1.72 3.969-.132 2.203 1.057-.655-.842 3.835 2.058-.748-1.123 2.713 1.965-1.216-1.59 3.18 2.9-.748-1.59 1.964 2.431s3.461 1.684 2.994 1.404c-.468-.281-2.526-2.526-2.058-2.152.467.374 3.274 2.152 3.274 2.152l-.936-1.59s1.965 1.496 1.403.841c-.56-.655-3.928-3.835-3.928-3.835l5.425 3.835-1.403-1.87 3.087 2.9s-1.216-2.433-.655-1.685c.561.749 2.245 1.684 2.245 1.684l-1.31-1.59-.935-.655 2.339 1.123 1.029 1.964 1.31.655 1.496 1.684-1.403-2.432-.842-1.965 2.432 2.806 1.403 2.34 1.123.841 5.612 3.835-4.396-1.87 3.835 2.525 1.965 1.123-2.152-.375 2.9 1.404 3.835 2.712-2.058-.654 1.123 1.403 1.122 1.496 1.31.468 1.87 1.497-1.496-2.058-2.245-1.684 2.806.936-.187-.936 2.058 2.994 1.497 2.806.935 1.59V37.11l1.123 4.116.468-1.684 1.216 3.555s.655-3.929.655-3.461v5.425l3.928 4.584-2.806-1.59 4.77 4.677-2.244-.748 2.62 3.648-1.872-.468 1.778 1.965 1.31.374.467 4.958.842 1.87-.468.562 1.964 1.216s-2.338-.187-1.87-.094c.467.094 2.619 2.433 2.619 2.433l-1.403-.281 1.31 2.432-.936-.28 1.87 2.993-1.122-.187 1.03 2.338-1.123.094 1.87 1.029-.935.28v2.433l2.339 2.245-2.526-1.216 2.058 4.396-1.59-2.151.842 4.583-.749-.467.468 2.9h-.655v2.993l-.374.093-.28 2.62.841-.468-.935 2.151.655.375-1.59 1.683h.935l-.842 2.34-.094 5.238-.467-.468.28 5.332-.187-.094v5.52l-.467.56-.655 2.994-.374 3.087-.655.374-.374 4.864-.562-.654-.374 6.36-.561.094.561-9.074.936-5.145.654-8.419-1.216-7.015-1.31-11.413-1.028-8.419-.562-.561.562-.468-.562-1.59-.56-.28.748-.562-1.404-3.835-.56-.749.186-.935-.561-2.526-.748-.655" fill="none"/><path d="M250.534 96.416l-.841 11.226-.562 4.49-4.677 8.886-2.993-4.583-12.722 4.21 1.403-3.836 13.844-8.138z" fill="#679452"/><path d="M266.781 134.853l8.262 5.061 5.051 6.361 4.49 8.513h.468l-3.835-7.951-4.864-6.736-8.73-5.529z" fill="#f08c6c"/><path d="M297.12 72.936l-.97-1.054v-.86l-.714-.705-.187-.842-.842-1.59.187-.561-.468-2.526-1.403-1.59-2.092-1.641-1.123-2.62 1.497.562-3.742-2.994h1.684l-4.864-2.432h2.245l-7.858-2.245-2.245.748 1.684-1.683h-6.174l2.432-.936-5.426-1.684-4.116.375 2.807-.936-7.11-2.245-5.425 2.058 2.058-2.245-4.303.748-1.871 3.742-3.18 4.677 2.619-4.864-5.239 3.368 1.497-2.994-4.865 1.123-3.741 3.18-5.239 5.613 3.93-5.426-5.988 4.49 1.123-2.619-6.735 8.045.748-3.555-1.497 1.123-2.993.935-2.432 2.994.374-2.058-3.93 6.922-.747-.748-3.614 6.318-.936-1.31-.374 8.045-.748-.748-.749 10.664-1.122-.374.187 9.541-.561 7.11.56 12.348 3.93 16.09h-.749l-4.49-15.155.187-1.122-1.496-2.433-.375-3.367.375-1.871-1.871-3.555 1.122.562-3.523-7.758-.53-1.588-.66 1.059.264-2.514-2.382-3.572 1.191.132-.265-1.587-.793-1.588-.794.927 1.19-3.043-1.058.132.662-3.175.132-2.91-.987 1.444s-.005-1.246.458-2.106c.463-.86.397-1.653.397-1.653l-.596.727.232-1.178-.033-1.07-1.19 1.058.66-2.051-.66.132.727-1.19.198-.794-1.389 1.19 1.522-1.72v-.528l-.86.198 1.323-1.587-1.39-1.125 1.257.33.066-.528-.529-.86 1.059.066.926-2.249-.397-1.588-1.852 4.63-.397-2.777-.794.396 1.588-2.116-1.191.926 2.646-4.895-1.19 1.19.793-1.851-3.175 4.63 1.058-2.778-1.19 1.323 1.455-3.175-1.852 1.322 2.116-2.645-1.058.132 2.249-1.852-.926-.397 4.101-2.91-3.572 1.19 3.307-2.646-1.984.794 2.778-4.233-1.058-1.059-1.058-.132 1.852-.794 1.587-1.19h1.19l.092-1.04.041-.812h-1.587l1.852-1.588-.53-1.587-.661 1.058.265-2.381-2.514 2.116 3.836-5.424-1.72.397 5.292-2.91-2.778.661 4.101-2.38h-1.587l3.969-3.044-1.985.662 4.233-2.646.133-1.587.264.793 2.778-3.175-4.63 2.382 3.837-3.043-1.588.397 4.63-2.646.133-.53 1.852-.793.397-.53-2.91.662 4.497-1.72 1.059-.926-2.514.133 5.292-1.19-1.985-.398 5.027-1.587-.661-.794 4.63-.397 1.588-1.587 2.116-.53 1.19-1.058h-1.851l-3.175 2.117 2.381-2.91 2.713-.389 2.182-.405 3.572-1.456-3.837.926 3.043-1.72 3.969-.132 2.203 1.057-.655-.842 3.835 2.058-.748-1.123 2.713 1.965-1.216-1.59 3.18 2.9-.748-1.59 1.964 2.431 2.923 1.357-2.058-2.152 3.345 2.199-.936-1.59 1.544 1.005-4.07-4 5.426 3.836-1.403-1.87 3.087 2.9-.854-1.895 1.193 1.134 1.251.76-1.31-1.59-.935-.655 2.339 1.123 1.029 1.964 1.31.655 1.496 1.684-1.403-2.432-.842-1.965 2.432 2.806 1.403 2.34 6.735 4.676-4.396-1.87 3.835 2.572 1.965 1.076-2.152-.375 2.9 1.404 3.835 2.712-2.058-.654 2.245 2.9 1.31.467 1.87 1.497-1.496-2.058-2.245-1.684 2.806.936-.187-.936 2.058 2.994 2.432 4.396V37.11l1.123 4.116.468-1.684 1.216 3.555.631-3.461.024 5.425 3.928 4.584-2.806-1.59 4.77 4.677-2.244-.748 2.62 3.648-1.872-.468 1.778 1.965 1.31.374.467 4.958.842 1.87-.468.562 1.965 1.216-1.871-.094 2.619 2.433-1.403-.281 1.31 2.432-.936-.28 1.87 2.993-1.122-.187 1.03 2.338-1.123.094 1.87 1.029-.935.28v2.433l2.339 2.245-2.526-1.216 2.058 4.396-1.59-2.151.842 4.583-.749-.467.468 2.9h-.655v2.993l-.374.093-.28 2.62.841-.468-.935 2.152.655.374-1.59 1.683h.935l-.842 2.34-.094 5.238-.467-.468.28 5.332-.187-.094v5.52l-.467.56-.655 2.994-.374 3.087-.655.374-.374 4.865-.562-.655-.374 6.36-.561.094.561-9.074.936-5.144.654-8.42-1.192-6.922-2.362-19.925-.562-.561.562-.468-.562-1.59-.56-.28.748-.562-1.404-3.835-.56-.749.186-.935-.561-2.526z" fill="#10161c"/><path d="M249.484 90.8l.761.43-.232 2.348-.554-.179z" fill="#6c2343"/><path d="M213.336 95.09l5.32-5.377 7.124-1.219 11.652 2.91 13.512 1.89-.41 3.122-13.197-.192-9.355-1.512z" fill="#732713"/><path d="M225.78 88.494l2.772 3.245 8.138 1.964 5.987.375.467-1.871-5.712-.802z" fill="#b43918"/><path d="M224.67 108.11l2.887-.377 2.646.199 2.778-.53 3.194-.509-4.77 2.152z" fill="#ba6831"/><path d="M236.354 102.838l-1.816-.996-6.548.42.89.907z" fill="#322829"/><path d="M228.88 103.17l-6.515 1.554-3.589-.544 9.214-1.917z" fill="#0f0d10"/><path d="M219.024 108.329l3.44-3.11 4.762-1.058-.727 1.588.264 1.323.794.661 2.646.199 2.778-.53 1.587-1.124.331-.992-.727-1.72 1.918-.198 2.249.926-.066.595-.662 1.124 3.671.24-1.356-1.629-3.572-1.786h-1.918l-5.556.331-2.282.43-4.233 1.125-4.697 1.752z" fill="#030305"/><path d="M216.858 105.303l1.918-1.123 9.214-1.917 6.548-.421 5.388 2.782 1.356 1.63.366-.507-1.333-1.59-5.59-2.783-6.711.187-9.402 1.965z" fill="#180d11"/><path d="M257.521 137.367l-1.748.864h-2.806l-2.62-1.123 3.401 3.586 5.613-.094 2.96-1.55 4.6-.353 3.035-1.463-3.175-2.38-2.91-.53z" fill="#de3323"/><path d="M260.431 109.056l4.63 5.424.794 10.716 3.705 3.042 2.116 6.483-1.72 2.513-2.467-1.6-4.173.313-2.355-.036-3.44 1.456 1.323-5.027 6.218-2.448-2.25-3.77 1.059-11.245z" fill="#ba6831"/><path d="M257.521 137.367l1.588 1.72 3.23-2.287 3.887-.323-1.175-.735-2.91-.53z" fill="#0d0406"/><path d="M237.876 134.258l2.228 5.797 4.49 1.029 14.079.842 8.249-3.229-4.601.353-2.96 1.55-5.613.094-3.4-3.586-6.387.457-1.786.926z" fill="#170d0e"/><path d="M237.876 134.258l2.228 5.797 4.49 1.029 14.079.842 8.249-3.229-4.601.353-2.96 1.55-5.613.094-3.4-3.586-6.387.457-1.786.926z" fill="#271614"/><path d="M248.85 112.132l-4.396 8.886 1.777 9.448 1.864 5.049 1.972.05-2.526-8.653z" fill="#b443df"/><path d="M255.212 134.863l-3.93-.187-2.15-8.326.56-18.708-.374-.094-.187 4.584h-.28v-2.9l-.562.187-.748 17.493 2.526 8.653 5.472.233z" fill="#5d047f"/><path d="M259.109 139.086l-.413.314-1.193-1.473-1.45.771-3.25.024-3.087-1.38-4.234-2.092h-1.918l-1.124.992 1.521 1.323-1.786.926-4.3-4.233.133-2.91 5.16-5.557 1.286-4.773 1.052 5.496-.304.07-.748-3.952-.561 2.222.304.772-.304.163-.21-.538-.118.725-5.06 5.57-.1 2.48 3.737 3.738.728-.43-1.059-1.191 1.588-1.588 2.183.1 4.765 2.453 2.62 1.123h2.806l1.748-.864z" fill="#c20f5a"/><path d="M242.44 136.242l1.521 1.323 6.367.083-4.846-2.398h-1.918z" fill="#0a0102"/><path d="M269.956 137.234l2.878-2.38-2.381-7.045-3.77-3.076-.63-10.584-7.176-8.367 1.554 3.274 4.63 5.424.794 10.716 3.705 3.042 2.116 6.483z" fill="#7f0454"/><path d="M274.108 104.32l5.307.767 1.852-.066 3.27-.28-4.115 1.264z" fill="#ba6831"/><path d="M267.377 104.228l3.572-3.043 4.365-.728 5.226-.198 5.424.397 4.828 1.124.133.397-4.101.86.397-1.39-1.456-.462-2.844-.199.661 1.852-.198 1.191-2.117.992-1.852.066-1.852-.595-1.786-1.455.199-2.05-.86.132-3.109.595.595 1.058v1.522l-2.844-.199-2.05.53z" fill="#060203"/><path d="M291.928 100.766s-3.227-1.356-3.461-1.356c-.234 0-5.239-.375-5.239-.375l-7.39-.233-3.742.42-3.133 3.649 2.806-4.163 4.163-.468 7.062.328 5.847.327z" fill="#1a0e10"/><path d="M265.769 91.271l4.717.587 16.8-2.646-.404-3.827-10.289 1.21z" fill="#b43918"/><path d="M243.796 127.28l-3.704 3.803.033 2.48 1.521 1.125 2.414-1.059-.793-.992-.563-1.819 1.422-2.91zm7.767 3.186l.407 2.394 1.032 1.192 2.584-.218 1.17-1.824-1.731-2.058-1.544-.234z" fill="#ad9da8"/><path d="M272.237 107.314l4.396 1.73 2.947.468 4.724-.56 3.788-1.731-3.086 2.245-5.192.701-3.602-.561z" fill="#ba6831"/><path d="M272.237 107.314l4.396 1.73 2.947.468 4.724-.56 3.788-1.731 6.876-4.07-.094-1.122-3.95.148-4.1.86-2.286 1.705-4.116 1.263-6.314-1.684-1.506-.027-2.844-.199-2.05.53-7.632-6.338 5.978 15.862.628 10.584 3.77 3.076-.928-16.987-4.21-3.929.375-.468 4.116 2.994z" fill="#2c76de"/><path d="M225.639 111.834l3.836.199 3.506-.662 6.218-2.91.86.397-6.086 3.44-5.093.727z" fill="#ba6831"/><path d="M238.85 159.907l1.769-.474 3.975-4.455 5.52-3.274h.935l4.256 1.73 3.789-1.684 1.45-.233h1.169l4.818 2.151 3.507 2.994 1.208.747 1.88.57v.132l-1.603.073-2.56-.026-3.93-.748-8.405 1.652-12.268.218-4.115 1.123z" fill="#263688"/><path d="M249.74 158.64l8.4-2.25 4.54-1.429 9.652 3.217-17.027 1.196z" fill="#1b234d"/><path d="M240.245 160.403l3.741 5.239 4.78 3.278 16.416-.969 5.239-4.303 2.704-5.537-4.162.047-3.93-.748-5.612 1.029-4.116.935-5.519-.561-5.425.468z" fill="#c0611e"/><path d="M248.765 168.92l15.701 2.446 5.955-7.718-5.239 4.303z" fill="#673512"/><path d="M273.125 158.111l-4.162.047-3.93-.748-8.405 1.652-2.352.5-4.49-.749-5.426.468-4.115 1.122-1.395-.364v-.132l1.399.247 4.06-1.042 5.432-.471 4.29.488 4.15-.351z"/><path d="M242.307 159.724l1.687 2.447 3.473 1.489 8.136.893 7.474-1.39 9.26-4.299-.005-.686-3.37-.02-3.928-.748-9.729 1.964-5.519-.561-5.426.468z" fill="#d98d56"/><path d="M244.36 159.28l.13 1.7 10.716 2.183 4.829-1.785-.199-1.853-3.307.596.1-1.059-1.324.312-5.519-.561z" fill="#dcb89e"/><path d="M256.628 159.062l-.165 1.985-1.39.562-6.68-.96v-1.09z" fill="#dbc9bb"/><path d="M261.424 159.393l.198 1.522 2.381.727 3.043-2.646-.132-.727z" fill="#dcb89e"/><path d="M248.765 168.92l15.701 2.446.596-2.051z" fill="#392517"/><path d="M257.98 147.017l-1.372.796.957 1.276 1.403-.989.032.032-.893.702.574.446s1.403-.606 1.467-.733c.064-.128-.415-2.329-.415-2.329z" fill="#212121"/><path d="M255.305 153.434l-.561 2.292-.702-1.122-3.32.187-2.713-1.123-.234-.608 2.338-1.356h.936z" opacity=".67" fill="#bf7d83"/><path d="M256.708 153.715l.187 1.356 2.48-1.263-1.778-.608z" opacity=".752" fill="#dcc6cb" fill-opacity=".575"/><path d="M256.405 148.265l1.121-4.222 1.522.133-.468 1.478 1.058.199.331.86-1.568 1.741z" fill="#090101" fill-opacity=".996"/><path d="M260.006 200.18l.327-2.432 1.076-.748 2.315 1.988z" fill="#3f144f"/><path d="M257.77 182.362l.016 2.134.71.463 1.77.082 1.852 3.804 5.838 1.802 3.059-1.174 8.169-3.026 3.886-4.019.38-.661-.496.579-3.77 3.704-11.328 4.3-5.754-1.952-1.637-3.406-1.919-.331-.612-.199v-2.067z" fill="#011200"/><path d="M306.38 122.14l2.433-3.554.187-7.577-2.62-4.396.094-5.239 1.87 1.497 1.498 3.929.654 5.332-.842 8.045-2.619 3.367z" fill="#f2d4ae"/><path d="M305.258 135.237l-1.777-6.454 2.558 5.508z" fill="#80907f"/><path d="M199.511 106.41l1.257-.595-.53 7.938-.86 2.05z" fill="#376dd4"/><path d="M205.795 129.297c-.265-.132-3.77-2.25-3.969-2.646-.198-.397-1.058-5.556-1.058-5.556l.53-4.763.065 4.895 1.588 4.696 3.175 2.05z" fill="#011200"/><path d="M205.984 138.698l2.548-.787 1.041-1.781-.058 1.142-.701.982-1.871.772z" fill="#151017"/><path d="M293.565 148.52l-8.045 16.464-11.225 12.91 12.3-11.88 7.999-16.792z" fill="#cd9d89"/><path d="M241.367 195.947l4.397.094 1.87-.936 4.678-1.216 1.87-2.712 2.62-.842v.467l-2.058.655-1.777 2.432-5.239 1.778-.935.374s-.749.561-1.497.561c-.748 0-3.929-.655-3.929-.655zm29.279-1.87l-2.058.187-2.9-.842-2.338-2.152-1.637.094-1.403-3.228-.702-.14-1.496-1.122h-1.263l-.094.374 1.216-.187 1.263.935.889.515 1.45 3.04 1.637.047 2.198 2.058 3.134.888 2.151-.187z" fill="#011200"/><path d="M255.165 200.765l2.947-2.573-.194 3.005z" fill="#53116d"/><path d="M243.763 231.823l-7.54-8.864-10.584-4.498 2.381 9.26z" fill="#951f53"/><path d="M289.668 182.213l1.058 14.817-15.346 24.606-2.249-6.879 12.171-22.49 5.363-22.933z" fill="#679452"/><path d="M289.668 182.213l-1.588 11.907-11.641 24.606 1.19 6.085 12.039-10.318 7.937-11.377 1.059-7.673-1.588-4.895-5.953-4.498z" fill="#95539e"/><path d="M218.098 193.59l-6.88 5.16.133 7.011 2.14 13.479 8.045 6.735.187 1.684 11.973 3.18-.187 1.123-22.076-1.684-.187 2.807-21.89-11.787-10.477 3.929 1.31 2.058 7.858-2.994 14.219 12.722 7.109.562 8.606 5.051 21.88.01 16.286-5.061 5.613.374 2.619-5.052 17.773-2.619 7.516-15.785-12.039 10.318-17.991 6.35-16.166-.018-15.669-5.636-8.606-7.928-7.18-11.973v-6.618z" fill="#450a4e"/><path d="M276.439 218.726l-1.19-14.817-24.872 20.373 9.26 6.88 17.992-6.35z" fill="#d985e4"/><path d="M259.638 231.161l-15.875.662-15.743-4.101-9.657-9.393-7.012-12.568-.132-7.011 6.88-5.16 3.042-6.35-.794-16.933.463 1.72 1.786 15.015-3.241 7.012-7.337 4.934v6.618l7.18 11.974 8.605 7.927 15.669 5.636 14.733-.444z" fill="#011200"/><path d="M250.476 85.971l-1.124-.926-.562-3.902 1.19 1.19z" fill="#60ba63"/><path d="M180.19 227.285l7.857-2.994 14.219 12.722 7.109.562 8.606 5.051 21.88.01 3.108-.958-.199-.727-3.24.992-21.3.033-8.532-4.994-7.144-.694-14.552-13.064-8.268 3.34z" fill="#231026"/><path d="M299.325 188.034l.596 6.416 2.711-.132 4.697 12.502-5.027 4.564 17.268 27.126-8.419-.187-2.245-2.993-1.87.187 2.431 2.806-18.334.561-1.465-24.391 7.937-11.377 1.059-7.673-1.588-4.895-5.953-4.498z" fill="#60623d"/><path d="M302.632 194.318l4.697 12.502 17.528 25.135 16.415 6.368-5.8-14.593h5.8l-7.483-6.735 3.367-.187-.748-3.742-13.47.935-9.355-11.412-2.993-6.735z" fill="#8d2050"/><path d="M311.364 208.143l12.17 19.05 5.821-.397-3.44-12.7 5.557-.662-1.132-4.226-10.179-11.847-4.63.198z" fill="#bf91c4" fill-opacity=".713"/></svg>